<?xml version="1.0" encoding="UTF-8" standalone="no"?>
<!-- Created with Inkscape (http://www.inkscape.org/) -->

<svg
   width="1280.0001"
   height="815.35229"
   viewBox="0 0 338.66668 215.72861"
   version="1.1"
   id="svg1"
   inkscape:version="1.4.3 (0d15f75, 2025-12-25)"
   sodipodi:docname="eulerx logo1.svg"
   inkscape:export-filename="eulerx logo1.png"
   inkscape:export-xdpi="96"
   inkscape:export-ydpi="96"
   xml:space="preserve"
   inkscape:export-batch-name=""
   inkscape:export-batch-path="Eulerx logo files\Full logo"
   xmlns:inkscape="http://www.inkscape.org/namespaces/inkscape"
   xmlns:sodipodi="http://sodipodi.sourceforge.net/DTD/sodipodi-0.dtd"
   xmlns:xlink="http://www.w3.org/1999/xlink"
   xmlns="http://www.w3.org/2000/svg"
   xmlns:svg="http://www.w3.org/2000/svg"><sodipodi:namedview
     id="namedview1"
     pagecolor="#ececec"
     bordercolor="#000000"
     borderopacity="0.25"
     inkscape:showpageshadow="false"
     inkscape:pageopacity="0.0"
     inkscape:pagecheckerboard="0"
     inkscape:deskcolor="#d1d1d1"
     inkscape:document-units="px"
     showborder="false"
     showgrid="false"
     inkscape:zoom="0.24"
     inkscape:cx="1091.6667"
     inkscape:cy="960.41667"
     inkscape:window-width="1920"
     inkscape:window-height="974"
     inkscape:window-x="-11"
     inkscape:window-y="-11"
     inkscape:window-maximized="1"
     inkscape:current-layer="layer1"
     showguides="false"><inkscape:grid
       id="grid1"
       units="px"
       originx="-855.72473"
       originy="-792.51119"
       spacingx="2.6458333"
       spacingy="2.6458333"
       empcolor="#0099e5"
       empopacity="0.30196078"
       color="#0099e5"
       opacity="0.14901961"
       empspacing="5"
       enabled="true"
       visible="false" /><sodipodi:guide
       position="188.9627,1802.3941"
       orientation="0,-1"
       id="guide2"
       inkscape:locked="false" /><sodipodi:guide
       position="147.0461,1827.4311"
       orientation="0,-1"
       id="guide3"
       inkscape:locked="false" /></sodipodi:namedview><defs
     id="defs1"><linearGradient
       id="linearGradient22"
       inkscape:collect="always"><stop
         style="stop-color:#2ec4c7;stop-opacity:1;"
         offset="0.5280236"
         id="stop22" /><stop
         style="stop-color:#8bea47;stop-opacity:1;"
         offset="1"
         id="stop23" /></linearGradient><linearGradient
       inkscape:collect="always"
       xlink:href="#linearGradient22"
       id="linearGradient82"
       gradientUnits="userSpaceOnUse"
       x1="397.50037"
       y1="153.22409"
       x2="439.4635"
       y2="153.22409" /></defs><g
     inkscape:label="Layer 1"
     inkscape:groupmode="layer"
     id="layer1"
     transform="translate(-855.72472,-792.51119)"><g
       id="Icon_-_main_color"
       style="stroke-width:0.123907"
       transform="matrix(8.0705721,0,0,8.0705721,-2352.3304,-335.32253)"><path
         style="opacity:1;fill:#2ec4c7;fill-opacity:1;stroke:none;stroke-width:0.262271;stroke-linecap:round;stroke-linejoin:round;stroke-dasharray:none;stroke-opacity:1;paint-order:fill markers stroke"
         d="m 397.52138,139.74644 13.44571,0.0837 c 3.65068,0.0227 9.03761,2.93745 12.66476,8.23127 -0.85375,2.26361 -2.22841,3.64614 -2.22841,3.64614 0,0 -3.9472,-7.40278 -10.63771,-7.77578 -5.13308,-0.28617 -13.24626,-0.16507 -13.24626,-0.16507 z"
         id="path72"
         sodipodi:nodetypes="csccscc" /><path
         style="fill:url(#linearGradient82);fill-opacity:1;stroke:none;stroke-width:0.262271;stroke-linecap:round;stroke-linejoin:round;stroke-dasharray:none;stroke-opacity:1;paint-order:fill markers stroke"
         d="m 397.56806,162.47047 c 0,0 7.44145,0.17225 13.63275,-0.0649 3.34744,-0.12822 6.74862,-3.09685 8.80389,-5.87466 3.81562,-5.15706 5.64537,-8.77468 9.23798,-12.5413 2.23353,-2.34171 7.57498,-4.70536 10.22081,-3.83276 v 3.14489 c 0,0 -3.66778,0.20943 -6.22963,2.10771 -5.55654,4.1173 -4.79837,7.14909 -12.19741,15.78532 -2.035,2.37527 -5.63034,4.20226 -8.49111,4.7386 -4.57416,0.85758 -15.04498,0.44332 -15.04498,0.44332 z"
         id="path73"
         sodipodi:nodetypes="csssccssscc" /><path
         style="fill:#8bea47;fill-opacity:1;stroke:none;stroke-width:0.262271;stroke-linecap:round;stroke-linejoin:round;stroke-dasharray:none;stroke-opacity:1;paint-order:fill markers stroke"
         d="m 425.58251,158.08132 c 0,0 0.14247,-0.18636 2.06745,-3.20387 3.5118,3.48884 5.02379,7.03115 10.87052,7.89011 0.19679,0.0289 -0.048,-0.28218 0.005,0.14407 0,1.54271 -1e-5,3.35059 -1e-5,3.35059 -4.6398,0.52154 -7.93749,-2.32537 -11.79536,-6.53382 z"
         id="path74"
         sodipodi:nodetypes="ccccccc" /><rect
         style="fill:#2ec4c7;fill-opacity:1;stroke:none;stroke-width:0.262271;stroke-linecap:round;stroke-linejoin:round;stroke-dasharray:none;stroke-opacity:1;paint-order:fill markers stroke"
         id="rect74"
         width="12.195182"
         height="3.8273666"
         x="397.50034"
         y="151.23924"
         rx="0.38346374"
         ry="0.37484246" /></g></g></svg>
